<?xml version="1.0" encoding="UTF-8"?>
<!DOCTYPE svg PUBLIC "-//W3C//DTD SVG 1.1//EN" "http://www.w3.org/Graphics/SVG/1.1/DTD/svg11.dtd">
<!-- Creator: CorelDRAW 2020 (64-Bit) -->
<svg xmlns="http://www.w3.org/2000/svg" xml:space="preserve" width="16mm" height="15mm" version="1.1" shape-rendering="geometricPrecision" text-rendering="geometricPrecision" image-rendering="optimizeQuality" fill-rule="evenodd" clip-rule="evenodd"
viewBox="0 0 1600 1500"
 xmlns:xlink="http://www.w3.org/1999/xlink"
 xmlns:xodm="http://www.corel.com/coreldraw/odm/2003">
 <g id="Capa_x0020_1">
  <metadata id="CorelCorpID_0Corel-Layer"/>
  <path fill="#96989A" d="M1585.79 199.66c-112.33,115.4 -560.83,787.8 -667.86,931.26 -72.41,106.1 -29.55,70.87 -151.95,100.97 -119.95,25.96 -724.73,65.65 -758.8,101.55 246.07,21.18 643.3,-1.05 906.72,-1.05 73.14,-103.8 575.26,-788.77 671.89,-927.89l0 -204.84z"/>
  <path fill="#F84339" d="M10.46 1284.13c59.78,3.15 86.86,-5.73 139.79,-12.64 73.59,-9.61 65.14,-9.74 90.82,-73.31 46.53,-115.15 265.44,-653.67 295.89,-677.1 26.88,59.16 249.39,572.22 273.19,590.83l85.08 -618.98 -380.28 -157.44c-115.31,244.6 -223.31,514.15 -328.48,766.02 -76.08,182.22 -33.91,91.82 -176.01,182.62z"/>
  <path fill="#F84339" d="M843.6 1146.67c149.04,-137.04 571.49,-777.12 723.06,-987.03 -44.01,4.8 -488.22,251.18 -566.56,288.46 -80.87,38.48 -60.38,35.33 -75.92,139.41 -18.75,125.53 -78.32,478.36 -80.58,559.16z"/>
  <polygon fill="#F84339" points="572.17,1025.12 633.83,1018.95 632.09,958.77 572.86,959.66 "/>
  <polygon fill="#F84339" points="571.98,1115.27 629.56,1114.48 627.48,1047.94 572.03,1049.77 "/>
  <polygon fill="#F84339" points="541.35,1115.04 541.57,1049.38 483.67,1047.18 488.16,1115.74 "/>
  <polygon fill="#F84339" points="484.59,1025.63 543.2,1021.17 541.5,958.52 485.87,958.14 "/>
 </g>
</svg>
