<?xml version="1.0" encoding="UTF-8"?>
<!DOCTYPE svg PUBLIC "-//W3C//DTD SVG 1.1//EN" "http://www.w3.org/Graphics/SVG/1.1/DTD/svg11.dtd">
<!-- Creator: CorelDRAW 2020 (64-Bit) -->
<svg xmlns="http://www.w3.org/2000/svg" xml:space="preserve" width="40mm" height="15mm" version="1.1" shape-rendering="geometricPrecision" text-rendering="geometricPrecision" image-rendering="optimizeQuality" fill-rule="evenodd" clip-rule="evenodd"
viewBox="0 0 4000 1500"
 xmlns:xlink="http://www.w3.org/1999/xlink"
 xmlns:xodm="http://www.corel.com/coreldraw/odm/2003">
 <g id="Capa_x0020_1">
  <metadata id="CorelCorpID_0Corel-Layer"/>
  <path fill="#D2D3D5" d="M1654.17 282.47c22.1,2.96 221.69,354.58 244.74,394.38 68.29,3.3 137.63,3.9 206.12,6.78 -18.1,-23.76 -24.05,-23.53 -54.76,-29.13 -82.29,8.08 -322.77,-451.35 -392.33,-566.92 -1.99,1.21 -4.42,3.04 -5.7,4.04 -82.3,63.79 -559,779.28 -668.92,926.61 -71.11,104.19 -29.02,69.6 -149.22,99.16 -117.79,25.49 -711.71,64.47 -745.16,99.72 241.65,20.8 631.74,-1.03 890.43,-1.03 77.81,-110.44 650.19,-890.91 674.8,-933.61z"/>
  <path fill="#F84339" d="M92.16 1168.69c58.71,3.1 85.3,-5.63 137.28,-12.41 72.27,-9.44 63.97,-9.57 89.19,-72 45.69,-113.08 260.67,-641.92 290.57,-664.93 26.4,58.09 244.91,561.94 268.28,580.22l83.55 -607.86 -373.44 -154.62c-113.24,240.21 -219.3,504.91 -322.58,752.26 -74.71,178.94 -33.3,90.17 -172.85,179.34z"/>
  <path fill="#F84339" d="M910.33 1033.7c146.36,-134.58 561.22,-763.16 710.07,-969.3 -43.22,4.71 -479.45,246.67 -556.38,283.28 -79.42,37.79 -59.3,34.69 -74.56,136.91 -18.41,123.27 -76.91,469.76 -79.13,549.11z"/>
  <path fill="#F84339" d="M2870.36 982.3l13.4 56.86c13.3,-1.88 34.87,16.74 20.17,-24.84l4.12 29.53 83.18 0.26c7.43,-19.09 3.19,-16.95 7.61,-35.1 1.64,-6.74 -2.1,-14.61 11.68,-30.34 1.82,-91.86 -1.19,-185.92 -1.19,-278.19 0.01,-82.87 -21.38,-194.82 14.58,-258.96 118.94,-18.46 137.07,76.73 206.33,101.51 -18.62,-59.42 -56.27,-86.79 -89.43,-121.74 -38.04,-40.09 -83.05,-54.9 -138.81,-72.51 -55.2,-17.43 -118.25,-20.98 -167.06,9.48 -84.17,52.52 -53.76,-40.5 -157.53,-13.02 -3.16,47.43 -1.29,108.55 12.49,144.12 77.73,36.24 63.19,-47.15 135.55,-31.84 51.64,10.93 46.99,56.84 46.47,145.57 -0.75,126.41 -0.83,252.8 -1.56,379.21z"/>
  <path fill="#F84339" d="M1973.92 718.16c-18.1,-11.17 -82.39,-13.61 -111.75,-6.69 -32.39,7.63 -21.78,53.77 -21.84,94.45 -0.1,74.32 -3.84,161.53 0.69,234.32 11.38,182.74 152.41,96.62 166.58,96.85 14.13,0.23 61.32,28.02 151.58,6.99 3.55,-67.29 11.44,-388.37 -4.78,-427.16 -22.77,-11.16 -99.34,-10.9 -122.69,-0.1 -17.48,17.59 -5.43,228.14 -6.82,292.58 -1.89,87.46 -13.73,65.34 -33.63,67.48 -15.42,-24.81 -10.45,-60.64 -10.34,-92.34 0.23,-66.5 10.51,-235.38 -7,-266.38z"/>
  <path fill="#F84339" d="M1624.78 839.63l-1.69 -131.24c53.94,0.28 49.37,20.26 49.89,65.08 0.58,49.39 6.46,67.79 -48.2,66.16zm-143.57 -163.5l0.71 467.13 141.6 4.41 0.42 -214.03c62.03,-4.52 132.81,-0.73 155.09,-55.07 16.89,-41.16 13.7,-154.38 0.25,-194.72 -25.5,-76.5 -158.3,-63.48 -252.43,-62.81 -51.61,0.37 -45.71,5.06 -45.64,55.09z"/>
  <path fill="#F84339" d="M3709.87 867.36c-10.29,-38.73 -8.72,-61.64 13.02,-82.58 32.1,11.77 35.42,46.86 19.56,82.64l-32.58 -0.06zm-3.85 75.07c52.73,-2.05 131.05,11.42 173.36,-5.57 31.44,-123.73 -20.84,-220.93 -140.13,-227.16 -171.44,-8.97 -169.23,95.48 -169.16,201.77 0.05,82.78 -31.02,228.76 128.55,242 137.03,11.36 199.82,-44.11 183.57,-185.62l-123.63 2.87c-4.97,30.15 -0.99,46.13 -3.51,71.05 -4.49,44.29 -1.43,31.58 -32.18,36.21 -29.15,-28.05 -17.84,-95.39 -16.87,-135.55z"/>
  <path fill="#F84339" d="M2630.3 866.08c-16.37,-34.65 -13.12,-69.78 19.47,-81.4 21.38,22.11 23.21,43.41 13.07,83.4l-32.54 -2zm6.36 211.7c-18.72,-29.49 -15.11,-91.19 -13.25,-135.19l177.09 -2.37c12.22,-128.63 -5.63,-223.64 -142.58,-230.43 -149.6,-7.42 -169.67,65.28 -169.69,201.68 -0.02,131.33 -8.85,228.78 129.26,242.59 140.86,14.08 193.54,-47.67 184.51,-186.38l-128.36 2.77c-3.4,104.52 9.95,106.54 -36.98,107.33z"/>
  <path fill="#F84339" d="M3472.2 708.6c12.57,-39.22 22.3,-12.24 56.15,-32.52l-3.12 -54.86c-171.21,-18.11 -155.07,43.92 -163.07,77.87 -11.34,48.13 0.04,5.17 -17.17,29.89 -7.61,10.94 -12.9,3.91 -11.24,36.12 3.39,65.25 31.13,-18.84 28.57,105.53l0.37 277.69 133.73 -0.96 0.32 -342c36.42,-23.6 36.85,-6.34 30.22,-72.42 -35.38,-14.53 -33.83,7.49 -54.76,-24.34z"/>
  <path fill="#F84339" d="M2362.66 1144.77c7.62,-91.28 -15.81,-229.76 19.01,-265.85 26.42,-27.39 33.46,-11.58 66.33,-24.26l-3.14 -143.65c-36.22,3.25 -50.05,16.43 -71.5,34.24 -16.07,-22.64 -2.62,-34.14 -56.1,-35.11 -27.69,-0.51 -63.91,-2.11 -81.48,7.29 -14.98,14.91 -6.5,425.57 -6.48,430.93l133.36 -3.59z"/>
  <path fill="#F84339" d="M3149.74 1142.79c38.38,10.78 99.88,8.76 139.37,1.42 3.67,-63.66 10.58,-393.12 -6.26,-426.46 -27.42,-14.22 -95.12,-9.93 -133.21,-3.76l0.1 428.8z"/>
  <path fill="#F84339" d="M3010.52 978.67c-13.78,15.73 -10.04,23.6 -11.68,30.34 -4.42,18.15 -0.18,16.01 -7.61,35.1l-83.18 -0.26 -4.12 -29.53c14.7,41.58 -6.87,22.96 -20.17,24.84l-13.4 -56.86 3.24 162.35 215.18 -4.11c8.15,-18.23 7.57,-34.17 5.65,-97.3l-83.68 -5.91 -0.23 -58.66z"/>
  <path fill="#F84339" d="M3149.22 680.05l135.99 5.38 1.07 -64.87c-41.45,-4.13 -97.65,-8.2 -134.61,4.75l-2.45 54.74z"/>
  <polygon fill="#F84339" points="643.78,914.33 704.33,908.28 702.62,849.17 644.46,850.05 "/>
  <polygon fill="#F84339" points="643.59,1002.87 700.14,1002.08 698.09,936.74 643.64,938.54 "/>
  <polygon fill="#F84339" points="613.51,1002.64 613.72,938.16 556.87,936 561.27,1003.32 "/>
  <polygon fill="#F84339" points="557.77,914.84 615.33,910.46 613.66,848.93 559.03,848.56 "/>
 </g>
</svg>
