<?xml version="1.0" encoding="UTF-8"?>
<!DOCTYPE svg PUBLIC "-//W3C//DTD SVG 1.1//EN" "http://www.w3.org/Graphics/SVG/1.1/DTD/svg11.dtd">
<!-- Creator: CorelDRAW 2020 (64-Bit) -->
<svg xmlns="http://www.w3.org/2000/svg" xml:space="preserve" width="40mm" height="12mm" version="1.1" shape-rendering="geometricPrecision" text-rendering="geometricPrecision" image-rendering="optimizeQuality" fill-rule="evenodd" clip-rule="evenodd"
viewBox="0 0 4000 1200"
 xmlns:xlink="http://www.w3.org/1999/xlink"
 xmlns:xodm="http://www.corel.com/coreldraw/odm/2003">
 <g id="Capa_x0020_1">
  <metadata id="CorelCorpID_0Corel-Layer"/>
  <path fill="#96989A" d="M1639.24 202.31c22.51,3.02 225.75,361.07 249.22,401.6 69.54,3.37 140.15,3.97 209.89,6.9 -18.43,-24.19 -24.49,-23.95 -55.76,-29.66 -83.8,8.23 -328.68,-459.6 -399.51,-577.29 -2.03,1.23 -4.5,3.1 -5.81,4.11 -83.8,64.96 -569.22,793.54 -681.15,943.57 -72.41,106.1 -29.55,70.87 -151.95,100.97 -119.95,25.96 -724.73,65.65 -758.8,101.55 246.07,21.18 643.3,-1.05 906.72,-1.05 79.24,-112.46 662.09,-907.21 687.15,-950.7z"/>
  <path fill="#06A3DA" d="M48.65 1104.75c59.78,3.15 86.86,-5.73 139.79,-12.64 73.59,-9.61 65.14,-9.74 90.82,-73.31 46.53,-115.15 265.44,-653.67 295.89,-677.1 26.88,59.16 249.39,572.22 273.19,590.83l85.08 -618.98 -380.28 -157.44c-115.31,244.6 -223.31,514.15 -328.48,766.02 -76.08,182.22 -33.91,91.82 -176.01,182.62z"/>
  <path fill="#06A3DA" d="M881.79 967.29c149.04,-137.04 571.49,-777.12 723.06,-987.03 -44.01,4.8 -488.22,251.18 -566.56,288.46 -80.87,38.48 -60.38,35.33 -75.92,139.41 -18.75,125.53 -78.32,478.36 -80.58,559.16z"/>
  <path fill="#06A3DA" d="M2877.69 914.95l13.64 57.9c13.54,-1.91 35.5,17.04 20.54,-25.29l4.2 30.07 84.7 0.26c7.56,-19.44 3.24,-17.25 7.75,-35.74 1.67,-6.86 -2.14,-14.87 11.88,-30.9 1.86,-93.54 -1.21,-189.32 -1.2,-283.27 0,-84.39 -21.77,-198.39 14.84,-263.7 121.12,-18.8 139.58,78.13 210.11,103.36 -18.96,-60.51 -57.3,-88.37 -91.07,-123.97 -38.73,-40.82 -84.57,-55.9 -141.34,-73.83 -56.22,-17.75 -120.43,-21.36 -170.12,9.65 -85.72,53.48 -54.75,-41.24 -160.42,-13.26 -3.21,48.3 -1.31,110.54 12.73,146.76 79.15,36.91 64.34,-48.01 138.02,-32.42 52.58,11.13 47.85,57.88 47.32,148.23 -0.76,128.73 -0.85,257.43 -1.58,386.15z"/>
  <path fill="#06A3DA" d="M1964.84 645.97c-18.43,-11.37 -83.9,-13.85 -113.79,-6.81 -32.99,7.77 -22.19,54.76 -22.24,96.18 -0.11,75.69 -3.92,164.48 0.7,238.61 11.59,186.08 155.2,98.39 169.63,98.63 14.38,0.23 62.44,28.53 154.35,7.12 3.61,-68.53 11.65,-395.49 -4.86,-434.99 -23.19,-11.36 -101.16,-11.09 -124.94,-0.1 -17.8,17.91 -5.53,232.32 -6.95,297.94 -1.92,89.06 -13.98,66.53 -34.24,68.71 -15.7,-25.26 -10.64,-61.75 -10.53,-94.03 0.23,-67.72 10.7,-239.68 -7.13,-271.26z"/>
  <path fill="#06A3DA" d="M1609.31 769.67l-1.71 -133.64c54.92,0.28 50.27,20.63 50.8,66.27 0.58,50.29 6.57,69.03 -49.09,67.37zm-146.19 -166.49l0.72 475.68 144.19 4.48 0.43 -217.94c63.17,-4.6 135.24,-0.74 157.93,-56.08 17.19,-41.91 13.94,-157.2 0.25,-198.28 -25.97,-77.9 -161.2,-64.64 -257.05,-63.96 -52.56,0.37 -46.54,5.15 -46.47,56.1z"/>
  <path fill="#06A3DA" d="M3732.55 797.91c-10.47,-39.44 -8.88,-62.77 13.27,-84.1 32.68,11.99 36.06,47.72 19.91,84.16l-33.18 -0.06zm-3.91 76.44c53.69,-2.08 133.44,11.63 176.52,-5.67 32.02,-126 -21.22,-224.97 -142.69,-231.32 -174.58,-9.13 -172.32,97.23 -172.25,205.47 0.05,84.29 -31.59,232.95 130.9,246.42 139.54,11.57 203.47,-44.92 186.92,-189.02l-125.89 2.93c-5.06,30.7 -1,46.98 -3.57,72.35 -4.57,45.1 -1.45,32.16 -32.76,36.87 -29.69,-28.56 -18.17,-97.13 -17.18,-138.03z"/>
  <path fill="#06A3DA" d="M2633.23 796.6c-16.66,-35.28 -13.36,-71.05 19.82,-82.89 21.78,22.52 23.64,44.21 13.32,84.93l-33.14 -2.04zm6.48 215.58c-19.07,-30.03 -15.39,-92.86 -13.5,-137.67l180.33 -2.41c12.44,-130.98 -5.73,-227.73 -145.18,-234.64 -152.34,-7.56 -172.78,66.47 -172.8,205.37 -0.02,133.73 -9.01,232.96 131.63,247.02 143.43,14.34 197.08,-48.54 187.88,-189.79l-130.71 2.82c-3.45,106.44 10.13,108.49 -37.65,109.3z"/>
  <path fill="#06A3DA" d="M3490.54 636.24c12.79,-39.94 22.71,-12.47 57.18,-33.11l-3.18 -55.86c-174.35,-18.44 -157.91,44.72 -166.05,79.29 -11.55,49.01 0.03,5.26 -17.49,30.43 -7.76,11.15 -13.14,3.98 -11.44,36.78 3.44,66.45 31.69,-19.18 29.08,107.47l0.38 282.77 136.18 -0.98 0.32 -348.26c37.09,-24.03 37.53,-6.46 30.78,-73.74 -36.03,-14.8 -34.45,7.62 -55.76,-24.79z"/>
  <path fill="#06A3DA" d="M2360.7 1080.4c7.75,-92.96 -16.11,-233.97 19.35,-270.72 26.9,-27.89 34.07,-11.79 67.55,-24.7l-3.2 -146.28c-36.89,3.31 -50.97,16.73 -72.81,34.87 -16.36,-23.06 -2.67,-34.77 -57.13,-35.76 -28.19,-0.52 -65.08,-2.15 -82.97,7.43 -15.25,15.18 -6.62,433.35 -6.59,438.81l135.8 -3.65z"/>
  <path fill="#06A3DA" d="M3162.17 1078.38c39.09,10.97 101.71,8.92 141.93,1.44 3.73,-64.83 10.76,-400.31 -6.38,-434.26 -27.92,-14.48 -96.86,-10.11 -135.64,-3.82l0.09 436.64z"/>
  <path fill="#06A3DA" d="M3020.4 911.25c-14.02,16.03 -10.21,24.04 -11.88,30.9 -4.51,18.49 -0.19,16.3 -7.75,35.74l-84.7 -0.26 -4.2 -30.07c14.96,42.33 -7,23.38 -20.54,25.29l-13.64 -57.9 3.29 165.32 219.12 -4.19c8.3,-18.56 7.71,-34.79 5.75,-99.07l-85.2 -6.02 -0.25 -59.74z"/>
  <path fill="#06A3DA" d="M3161.65 607.17l138.47 5.48 1.1 -66.06c-42.21,-4.2 -99.45,-8.34 -137.07,4.84l-2.5 55.74z"/>
  <polygon fill="#06A3DA" points="610.36,845.74 672.02,839.57 670.28,779.39 611.05,780.28 "/>
  <polygon fill="#06A3DA" points="610.17,935.89 667.75,935.1 665.67,868.56 610.22,870.39 "/>
  <polygon fill="#06A3DA" points="579.54,935.66 579.76,870 521.86,867.8 526.35,936.36 "/>
  <polygon fill="#06A3DA" points="522.78,846.25 581.39,841.79 579.69,779.14 524.06,778.76 "/>
 </g>
</svg>
